<svg width="100%" height="100%" viewBox="0 0 1200 800" xmlns="http://www.w3.org/2000/svg">
  <!-- Sfondo tavolo -->
  <rect width="100%" height="100%" fill="#8B4513"/>
  
  <!-- Tovaglia -->
  <rect x="0" y="100" width="100%" height="600" fill="#F5F5DC"/>
  
  <!-- Vassoi d'argento -->
  <!-- Vassoio grande centrale -->
  <ellipse cx="600" cy="400" rx="200" ry="80" fill="#C0C0C0" stroke="#A0A0A0" stroke-width="2"/>
  
  <!-- Vassoi laterali -->
  <ellipse cx="200" cy="300" rx="80" ry="60" fill="#C0C0C0" stroke="#A0A0A0" stroke-width="2"/>
  <ellipse cx="1000" cy="300" rx="80" ry="60" fill="#C0C0C0" stroke="#A0A0A0" stroke-width="2"/>
  
  <!-- Ciotole -->
  <circle cx="300" cy="500" r="60" fill="#C0C0C0" stroke="#A0A0A0" stroke-width="2"/>
  <circle cx="900" cy="500" r="60" fill="#C0C0C0" stroke="#A0A0A0" stroke-width="2"/>
  
  <!-- Cibo sui vassoi -->
  <!-- Sushi -->
  <ellipse cx="650" cy="380" rx="40" ry="15" fill="#FFD700"/>
  <ellipse cx="580" cy="390" rx="35" ry="12" fill="#FFD700"/>
  <ellipse cx="720" cy="385" rx="38" ry="14" fill="#FFD700"/>
  
  <!-- Verdure -->
  <circle cx="200" cy="280" r="15" fill="#32CD32"/>
  <circle cx="220" cy="300" r="12" fill="#228B22"/>
  <circle cx="180" cy="310" r="18" fill="#32CD32"/>
  
  <!-- Carne -->
  <ellipse cx="1000" cy="280" rx="25" ry="15" fill="#8B4513"/>
  <ellipse cx="1020" cy="300" rx="20" ry="12" fill="#A0522D"/>
  <ellipse cx="980" cy="310" rx="22" ry="14" fill="#8B4513"/>
  
  <!-- Formaggio -->
  <rect x="280" y="460" width="40" height="20" rx="5" fill="#FFD700"/>
  <rect x="290" y="480" width="35" height="15" rx="3" fill="#FFFF00"/>
  
  <!-- Frutta -->
  <circle cx="900" cy="480" r="12" fill="#FF6347"/>
  <circle cx="920" cy="500" r="10" fill="#FFD700"/>
  <circle cx="880" cy="490" r="14" fill="#FF6347"/>
  
  <!-- Pane -->
  <ellipse cx="150" cy="200" rx="30" ry="20" fill="#DEB887"/>
  <ellipse cx="180" cy="190" rx="25" ry="18" fill="#F4A460"/>
  
  <!-- Tazze -->
  <rect x="100" y="600" width="20" height="30" fill="white"/>
  <rect x="130" y="600" width="20" height="30" fill="white"/>
  <rect x="160" y="600" width="20" height="30" fill="white"/>
  
  <!-- Decorazioni -->
  <circle cx="400" cy="200" r="8" fill="#FF1493"/>
  <circle cx="800" cy="180" r="10" fill="#FF69B4"/>
  <circle cx="500" cy="600" r="6" fill="#00CED1"/>
</svg>
